<?xml version="1.0" encoding="iso-8859-1"?>
<!-- Generator: Adobe Illustrator 19.0.0, SVG Export Plug-In . SVG Version: 6.00 Build 0)  -->
<svg version="1.1" id="Capa_1" xmlns="http://www.w3.org/2000/svg" xmlns:xlink="http://www.w3.org/1999/xlink" x="0px" y="0px"
	 viewBox="0 0 386.926 386.926" style="enable-background:new 0 0 386.926 386.926;" xml:space="preserve">
<g>
	<g>
		<path d="M385.923,129.929c-2-3.56-9.48-6.12-20.44-7.6c-8.96-1.24-21.08-2.24-34.64-2.88c-42.48-2-99.68,0-119.6,10.56h-0.36
			c-5.453,2.931-11.261,5.15-17.28,6.6c-6.101-1.431-11.991-3.65-17.52-6.6c-19.64-10.88-77.24-12.76-120-10.76
			c-13.56,0.64-25.68,1.64-34.64,2.88c-10.96,1.52-18.44,4-20.44,7.64c-0.696,1.216-1.042,2.6-1,4l1.08,22.4
			c0.36,8,5.12,8.76,11.32,9.6c2.96,0.4,7.2,0.96,8,9.12c0.28,4,0.32,8.76,0,14.4c-0.32,5.64-0.48,12.64-0.96,20.84
			c0,1.333,0,2.747,0,4.24c-0.258,16.412,8.167,31.74,22.16,40.32c12.68,8.24,29.6,12.4,47.64,13.44c3.68,0.2,7.56,0.28,11.56,0.24
			c24.88-0.32,44.2-7.48,59.36-20c15.16-12.52,25.8-29.08,33.44-49.36v-0.04c8.4,20,18.96,37.08,33.68,49.32
			c14.72,12.24,33.84,19.72,58.72,20c4,0,8,0,11.56-0.24c18.04-1.04,35-5.2,47.64-13.44c14.048-8.546,22.536-23.878,22.32-40.32
			c0-1.48,0-2.92,0-4.24c-0.48-8.2-0.84-15.16-0.96-20.84s0-10.4,0-14.36c0.6-8,4.84-8.76,8-9.12c6.2-0.84,10.96-1.44,11.32-9.6
			l1.04-22.2C386.963,132.53,386.617,131.146,385.923,129.929z M101.163,237.689c-25.64,0.32-47.76-8.36-48-32.84l-0.56-48.6
			c0-3.04,110.08-23.56,109.28,23.48C153.603,213.129,137.123,237.249,101.163,237.689z M286.043,237.609
			c-36-0.44-52.4-24.52-60.72-57.92c-0.794-46.631,107.539-26.801,109.24-23.518l-0.52,48.598
			C333.803,229.249,311.643,237.929,286.043,237.609z"/>
	</g>
</g>
<g>
</g>
<g>
</g>
<g>
</g>
<g>
</g>
<g>
</g>
<g>
</g>
<g>
</g>
<g>
</g>
<g>
</g>
<g>
</g>
<g>
</g>
<g>
</g>
<g>
</g>
<g>
</g>
<g>
</g>
</svg>
